<svg version="1.1" id="Layer_1" xmlns="http://www.w3.org/2000/svg" xmlns:xlink="http://www.w3.org/1999/xlink" x="0px" y="0px"
	 width="100%" viewBox="0 0 261 261" enable-background="new 0 0 261 261" xml:space="preserve">
<path fill="#FFFFFF" opacity="1.000000" stroke="none" 
	d="
M173.000000,262.000000 
	C115.333344,262.000000 58.166695,262.000000 1.000031,262.000000 
	C1.000021,175.000031 1.000021,88.000069 1.000010,1.000077 
	C87.999947,1.000051 174.999893,1.000051 261.999878,1.000026 
	C261.999939,87.999931 261.999939,174.999863 261.999969,261.999878 
	C232.500000,262.000000 203.000000,262.000000 173.000000,262.000000 
M70.457916,71.080368 
	C70.624641,71.424156 70.791367,71.767937 70.995956,72.802841 
	C71.313705,75.536270 71.788078,78.262718 71.910484,81.004868 
	C72.072037,84.623756 71.957497,88.254959 71.265335,91.740746 
	C65.596146,89.054657 59.278709,87.219017 54.397877,83.498665 
	C45.312119,76.573158 37.031246,68.585571 28.492857,60.953362 
	C26.827053,59.464355 25.513527,57.581249 23.651022,55.224915 
	C21.230228,54.701332 18.809435,54.177753 16.388641,53.654175 
	C16.142042,54.062275 15.895442,54.470375 15.648843,54.878471 
	C16.392550,55.931496 17.136257,56.984520 17.981531,58.832371 
	C18.026449,59.658791 17.793869,60.642300 18.159065,61.287411 
	C21.954611,67.992180 25.720974,74.719086 29.736433,81.292625 
	C39.227707,96.830414 52.225426,108.810638 67.713043,118.206802 
	C70.872826,120.123810 74.015884,122.068367 77.025566,124.859550 
	C77.375046,128.609909 77.621674,132.373245 78.092751,136.108276 
	C79.685921,148.740097 81.111221,161.401062 83.100334,173.971817 
	C84.172432,180.747253 86.262054,187.361679 87.997032,194.765701 
	C92.169991,204.049362 99.744362,208.659164 109.523521,208.891037 
	C126.173927,209.285812 142.844223,209.201279 159.498230,208.891220 
	C165.385605,208.781616 170.759430,206.890656 175.358856,202.366898 
	C181.904419,195.928986 184.411423,188.204193 184.993240,179.479370 
	C185.369217,173.841507 185.588654,168.191940 186.042236,162.560852 
	C186.541260,156.365616 187.228256,150.185516 188.202774,143.281616 
	C187.838196,142.190613 187.282471,140.122421 187.136887,140.150894 
	C183.031006,140.954041 178.966507,141.968781 174.301437,142.999939 
	C173.851410,143.297455 173.401382,143.594971 172.334381,144.169540 
	C169.328033,147.974884 166.321686,151.780228 163.082687,156.190109 
	C163.112244,156.403992 163.141815,156.617889 162.938904,157.486435 
	C160.587524,165.643707 158.236145,173.800964 155.242722,182.253555 
	C152.316833,183.502319 149.447220,185.638306 146.454147,185.828232 
	C138.492310,186.333405 130.476868,186.048203 122.483505,185.983185 
	C116.958885,185.938263 113.546043,183.513351 112.007019,178.186829 
	C107.611191,162.973022 103.370338,147.714447 98.959053,132.085602 
	C100.459595,132.171722 101.614044,132.057663 102.671707,132.325607 
	C119.634712,136.623032 136.797256,137.109711 153.885406,133.848434 
	C175.689163,129.687195 195.495834,120.790215 211.974030,105.662132 
	C219.324722,98.913727 226.609024,91.767143 232.348953,83.683304 
	C237.896729,75.870071 241.420502,66.619690 245.970718,57.172634 
	C244.236877,53.151730 241.482803,55.030964 238.213425,56.005035 
	C237.459396,56.967514 236.705383,57.929993 235.336487,59.167820 
	C225.544800,67.738945 215.753098,76.310066 205.214630,84.985390 
	C197.129150,88.951866 189.043671,92.918343 180.170929,96.984291 
	C167.115921,100.965714 154.129913,105.307411 140.223007,105.044991 
	C131.102707,104.872887 121.938995,105.124916 112.877769,104.287956 
	C105.520866,103.608421 98.287567,101.590820 90.304565,99.803169 
	C89.870285,98.798370 89.339645,97.823471 89.017021,96.784019 
	C86.490013,88.642654 86.010506,79.715729 79.888252,72.474792 
	C79.598961,72.372078 79.309669,72.269363 78.533394,72.007286 
	C78.367989,71.964699 78.202583,71.922119 77.667847,71.242592 
	C75.431221,71.124527 73.194603,71.006454 70.457916,71.080368 
z"/>
<path fill="#00A6E0" opacity="1.000000" stroke="none" 
	d="
M24.037518,55.879921 
	C25.513527,57.581249 26.827053,59.464355 28.492857,60.953362 
	C37.031246,68.585571 45.312119,76.573158 54.397877,83.498665 
	C59.278709,87.219017 65.596146,89.054657 71.685226,92.184982 
	C73.497124,93.105881 74.889122,93.582550 76.776588,94.228874 
	C75.822556,86.829384 75.018791,80.595398 74.276848,74.840904 
	C75.550316,73.838020 76.793747,72.858788 78.037186,71.879547 
	C78.202583,71.922119 78.367989,71.964699 78.868484,72.262451 
	C79.366501,72.736168 79.576431,72.891022 79.833351,72.982170 
	C86.010506,79.715729 86.490013,88.642654 89.017021,96.784019 
	C89.339645,97.823471 89.870285,98.798370 90.662888,100.350975 
	C93.231659,102.294746 95.269623,104.345192 97.680511,104.980545 
	C113.430824,109.131317 129.328964,110.839920 145.731415,109.199135 
	C157.419846,108.029900 168.423615,105.270447 178.961533,100.366829 
	C179.952591,99.905670 180.307770,98.078018 180.958191,96.884804 
	C189.043671,92.918343 197.129150,88.951866 205.654083,85.296661 
	C207.610245,85.701759 209.648636,86.479538 210.562210,85.782677 
	C218.892441,79.428398 226.994110,72.775719 235.235886,66.303589 
	C238.192230,63.982025 238.489380,61.631424 235.951355,58.892467 
	C236.705383,57.929993 237.459396,56.967514 238.888931,56.123249 
	C241.654083,56.827843 243.743713,57.414223 245.833359,58.000595 
	C241.420502,66.619690 237.896729,75.870071 232.348953,83.683304 
	C226.609024,91.767143 219.324722,98.913727 211.974030,105.662132 
	C195.495834,120.790215 175.689163,129.687195 153.885406,133.848434 
	C136.797256,137.109711 119.634712,136.623032 102.671707,132.325607 
	C101.614044,132.057663 100.459595,132.171722 98.959053,132.085602 
	C103.370338,147.714447 107.611191,162.973022 112.007019,178.186829 
	C113.546043,183.513351 116.958885,185.938263 122.483505,185.983185 
	C130.476868,186.048203 138.492310,186.333405 146.454147,185.828232 
	C149.447220,185.638306 152.316833,183.502319 155.962067,182.117493 
	C157.996857,181.631409 160.266510,181.574890 160.478546,180.885498 
	C162.373795,174.723434 164.128418,168.494308 165.394211,162.178650 
	C165.723175,160.537384 166.928986,157.314499 163.171371,156.831772 
	C163.141815,156.617889 163.112244,156.403992 163.635345,156.030518 
	C166.738983,154.460815 169.397369,153.211777 171.813919,151.600113 
	C174.880066,149.555222 176.062286,146.974091 172.951355,143.892487 
	C173.401382,143.594971 173.851410,143.297455 174.984451,143.141998 
	C179.722763,143.522324 183.778061,143.760574 187.833359,143.998825 
	C187.228256,150.185516 186.541260,156.365616 186.042236,162.560852 
	C185.588654,168.191940 185.369217,173.841507 184.993240,179.479370 
	C184.411423,188.204193 181.904419,195.928986 175.358856,202.366898 
	C170.759430,206.890656 165.385605,208.781616 159.498230,208.891220 
	C142.844223,209.201279 126.173927,209.285812 109.523521,208.891037 
	C99.744362,208.659164 92.169991,204.049362 88.247864,194.152954 
	C88.644836,192.579514 89.017654,191.591003 88.903664,190.662231 
	C86.623421,172.081894 84.529884,153.472046 81.756691,134.964355 
	C81.203468,131.272247 82.893166,125.834122 77.166656,124.000221 
	C74.015884,122.068367 70.872826,120.123810 67.713043,118.206802 
	C52.225426,108.810638 39.227707,96.830414 29.736433,81.292625 
	C25.720974,74.719086 21.954611,67.992180 18.159065,61.287411 
	C17.793869,60.642300 18.026449,59.658791 18.353971,58.424232 
	C20.496780,57.304035 22.267147,56.591976 24.037518,55.879921 
z"/>
<path fill="#00A6E0" opacity="1.000000" stroke="none" 
	d="
M180.564545,96.934540 
	C180.307770,98.078018 179.952591,99.905670 178.961533,100.366829 
	C168.423615,105.270447 157.419846,108.029900 145.731415,109.199135 
	C129.328964,110.839920 113.430824,109.131317 97.680511,104.980545 
	C95.269623,104.345192 93.231659,102.294746 91.010330,100.532715 
	C98.287567,101.590820 105.520866,103.608421 112.877769,104.287956 
	C121.938995,105.124916 131.102707,104.872887 140.223007,105.044991 
	C154.129913,105.307411 167.115921,100.965714 180.564545,96.934540 
z"/>
<path fill="#00A6E0" opacity="1.000000" stroke="none" 
	d="
M77.096115,124.429886 
	C82.893166,125.834122 81.203468,131.272247 81.756691,134.964355 
	C84.529884,153.472046 86.623421,172.081894 88.903664,190.662231 
	C89.017654,191.591003 88.644836,192.579514 88.195641,193.794479 
	C86.262054,187.361679 84.172432,180.747253 83.100334,173.971817 
	C81.111221,161.401062 79.685921,148.740097 78.092751,136.108276 
	C77.621674,132.373245 77.375046,128.609909 77.096115,124.429886 
z"/>
<path fill="#00A6E0" opacity="1.000000" stroke="none" 
	d="
M235.643921,59.030144 
	C238.489380,61.631424 238.192230,63.982025 235.235886,66.303589 
	C226.994110,72.775719 218.892441,79.428398 210.562210,85.782677 
	C209.648636,86.479538 207.610245,85.701759 206.027466,85.244568 
	C215.753098,76.310066 225.544800,67.738945 235.643921,59.030144 
z"/>
<path fill="#00A6E0" opacity="1.000000" stroke="none" 
	d="
M77.852516,71.561066 
	C76.793747,72.858788 75.550316,73.838020 74.276848,74.840904 
	C75.018791,80.595398 75.822556,86.829384 76.776588,94.228874 
	C74.889122,93.582550 73.497124,93.105881 72.033386,92.255043 
	C71.957497,88.254959 72.072037,84.623756 71.910484,81.004868 
	C71.788078,78.262718 71.313705,75.536270 70.988754,72.151306 
	C70.973701,71.295975 70.965843,71.092178 70.957977,70.888390 
	C73.194603,71.006454 75.431221,71.124527 77.852516,71.561066 
z"/>
<path fill="#00A6E0" opacity="1.000000" stroke="none" 
	d="
M163.055145,157.159103 
	C166.928986,157.314499 165.723175,160.537384 165.394211,162.178650 
	C164.128418,168.494308 162.373795,174.723434 160.478546,180.885498 
	C160.266510,181.574890 157.996857,181.631409 156.283081,181.969818 
	C158.236145,173.800964 160.587524,165.643707 163.055145,157.159103 
z"/>
<path fill="#00A6E0" opacity="1.000000" stroke="none" 
	d="
M172.642868,144.031021 
	C176.062286,146.974091 174.880066,149.555222 171.813919,151.600113 
	C169.397369,153.211777 166.738983,154.460815 163.751678,155.728241 
	C166.321686,151.780228 169.328033,147.974884 172.642868,144.031021 
z"/>
<path fill="#00A6E0" opacity="1.000000" stroke="none" 
	d="
M188.018066,143.640228 
	C183.778061,143.760574 179.722763,143.522324 175.281342,143.116455 
	C178.966507,141.968781 183.031006,140.954041 187.136887,140.150894 
	C187.282471,140.122421 187.838196,142.190613 188.018066,143.640228 
z"/>
<path fill="#00A6E0" opacity="1.000000" stroke="none" 
	d="
M23.844269,55.552418 
	C22.267147,56.591976 20.496780,57.304035 18.303188,58.026817 
	C17.136257,56.984520 16.392550,55.931496 15.648843,54.878471 
	C15.895442,54.470375 16.142042,54.062275 16.388641,53.654175 
	C18.809435,54.177753 21.230228,54.701332 23.844269,55.552418 
z"/>
<path fill="#00A6E0" opacity="1.000000" stroke="none" 
	d="
M245.902039,57.586617 
	C243.743713,57.414223 241.654083,56.827843 239.229675,56.095291 
	C241.482803,55.030964 244.236877,53.151730 245.902039,57.586617 
z"/>
<path fill="#00A6E0" opacity="1.000000" stroke="none" 
	d="
M70.707947,70.984375 
	C70.965843,71.092178 70.973701,71.295975 70.969826,71.805740 
	C70.791367,71.767937 70.624641,71.424156 70.707947,70.984375 
z"/>
<path fill="#00A6E0" opacity="1.000000" stroke="none" 
	d="
M79.860802,72.728485 
	C79.576431,72.891022 79.366501,72.736168 79.111977,72.342125 
	C79.309669,72.269363 79.598961,72.372078 79.860802,72.728485 
z"/>
</svg>